<svg xmlns="http://www.w3.org/2000/svg" height="48" width="48"><path d="M39.25 44Q31.85 44 25.075 41.4Q18.3 38.8 13.1 34.225Q7.9 29.65 4.8 23.375Q1.7 17.1 1.7 9.75Q1.7 7.3 3.075 5.625Q4.45 3.95 6.95 3.95H12.1Q13.65 3.95 14.475 4.8Q15.3 5.65 15.65 7.25Q16 9 16.425 10.75Q16.85 12.5 17.4 13.9Q17.9 15.1 17.675 16.125Q17.45 17.15 16.5 18.1L12.2 22.3Q14.85 26.2 19.625 29.875Q24.4 33.55 28.95 34.85L31.5 29.7Q32 28.7 32.775 28.325Q33.55 27.95 34.95 28.1Q36.35 28.25 37.775 28.225Q39.2 28.2 41 28.1Q42.7 28 43.825 29Q44.95 30 45.35 32.2L46.25 37.25Q46.25 37.25 46.35 38.15Q46.35 40.45 44.425 42.225Q42.5 44 39.25 44Z"/></svg>